<svg width="39" height="39" viewBox="0 0 39 39" fill="none" xmlns="http://www.w3.org/2000/svg">
<path fill-rule="evenodd" clip-rule="evenodd" d="M38.75 19.375C38.75 30.0755 30.0755 38.75 19.375 38.75C8.67445 38.75 0 30.0755 0 19.375C0 8.67445 8.67445 0 19.375 0C30.0755 0 38.75 8.67445 38.75 19.375ZM15.617 24.8102L13.2816 17.6765L19.375 13.2603L25.4684 17.6765L23.1542 24.8102H15.617ZM3.125 19.375L3.12516 19.3602L5.23484 21.2009L10.3304 16.445L9.01406 9.58727L6.21641 9.83594C8.18609 7.13102 11.0053 4.98836 14.3866 3.90227L13.2816 6.4875L19.375 9.86328L25.4686 6.4875L24.3637 3.90227C27.744 4.98805 30.5638 7.13047 32.5338 9.83594L29.7573 9.58727L28.4197 16.445L33.5152 21.2009L35.6248 19.3602L35.625 19.375C35.625 22.8672 34.5301 26.1908 32.504 28.9552L31.8804 26.2116L24.959 27.0609L22.0078 33.3878L24.428 34.8274C21.1658 35.8904 17.5903 35.8923 14.3222 34.8274L16.7423 33.3878L13.7912 27.0609L6.86969 26.2116L6.24609 28.9552C4.21992 26.1908 3.125 22.8672 3.125 19.375Z" fill="black"/>
</svg>
